<?xml version="1.0" encoding="UTF-8"?>
<svg width="91px" height="76px" viewBox="0 0 91 76" version="1.1" xmlns="http://www.w3.org/2000/svg" xmlns:xlink="http://www.w3.org/1999/xlink">
    <!-- Generator: Sketch 61.1 (89650) - https://sketch.com -->
    <title>Group 18 Copy 6</title>
    <desc>Created with Sketch.</desc>
    <defs>
        <linearGradient x1="-1.11022302e-14%" y1="50%" x2="100%" y2="50%" id="linearGradient-1">
            <stop stop-color="#C3AD72" offset="0%"></stop>
            <stop stop-color="#F0E6C3" offset="100%"></stop>
        </linearGradient>
    </defs>
    <g id="Symbols" stroke="none" stroke-width="1" fill="none" fill-rule="evenodd">
        <g id="layout/banner" transform="translate(-228.000000, -47.000000)">
            <g id="sitemap">
                <g id="Group-18-Copy-6" transform="translate(226.000000, 47.000000)">
                    <g id="Group" transform="translate(0.000000, 54.000000)" fill="#E4D7AB" font-family="Helvetica-BoldOblique, Helvetica" font-size="20.1599994" font-style="italic" font-weight="bold">
                        <text id="GemCard">
                            <tspan x="0.486597673" y="20.6399981">GemCard</tspan>
                        </text>
                    </g>
                    <g id="Group-15" transform="translate(0.486598, 0.040000)" fill="url(#linearGradient-1)" fill-rule="nonzero">
                        <g id="Logo-Copy-3" transform="translate(22.367834, 0.000000)">
                            <path d="M44.5257791,8.73303751 L44.548866,8.62893676 L44.4026486,8.5959292 C39.7467771,3.39977823 32.9553613,0.119335009 25.4033582,0.119335009 C21.842835,0.119335009 18.4516162,0.849309797 15.3733541,2.16453394 L15.0219192,2.08709313 L14.9642018,2.34226693 C6.15267643,6.29047839 0.00769565532,15.0768358 0.00769565532,25.2558582 C0.00769565532,31.4739738 2.30228355,37.1715857 6.09495901,41.5641297 L6.065459,41.6936209 L6.23861125,41.7317065 C10.8983305,47.0344973 17.7615725,50.3923813 25.4033582,50.3923813 C39.4068857,50.3923813 50.7990208,39.1164925 50.7990208,25.2558582 C50.7990208,18.9361808 48.4300415,13.1535109 44.5257791,8.73303751 Z M5.77430671,38.9590718 C5.77558932,38.9463766 5.77687193,38.9349509 5.77943715,38.9222557 C5.87819806,39.0022356 5.98337201,39.0834849 6.0923938,39.1660038 C6.23476342,39.3208854 6.38098087,39.475767 6.53104615,39.6293791 L6.49898092,39.770296 C6.46563308,39.7512532 6.43228524,39.7322103 6.40150262,39.714437 C6.18730688,39.4656109 5.97695897,39.2142456 5.77430671,38.9590718 Z M44.870801,11.3596772 C44.8682357,11.3837981 44.8643879,11.4091886 44.8605401,11.437118 C44.7823009,11.373642 44.7027791,11.3101659 44.6181269,11.2466898 C44.4449747,11.0600702 44.266692,10.8734505 44.0832789,10.6868309 L44.1114963,10.5611483 C44.1730615,10.5954254 44.2282137,10.6271634 44.2808007,10.6576319 C44.483453,10.8899543 44.6796922,11.1235463 44.870801,11.3596772 Z M6.76319842,38.6048754 C6.67854621,38.5350517 6.59645922,38.4639585 6.51565484,38.3941348 C6.3296765,38.2113237 6.15139382,38.0272431 5.97952418,37.8444321 C6.60672009,34.8382055 8.47548173,27.4648253 10.5879391,19.9708407 C11.2343742,17.6780851 11.8153961,15.683667 12.3387007,13.9482313 L6.76319842,38.6048754 Z M43.8485614,11.7265689 C43.961431,11.8205135 44.073018,11.9131885 44.1794746,12.0058636 C44.3474964,12.1696319 44.5078225,12.3334001 44.6630183,12.4971684 C44.0358224,15.5008559 42.1683433,22.8780446 40.0533207,30.3758378 C39.3504509,32.8666388 38.7258202,35.0032432 38.1691678,36.8389711 L43.8485614,11.7265689 Z M33.05797,47.6730665 C32.9861439,47.7238474 32.9143178,47.7708197 32.8412091,47.8190615 C31.3097737,47.5118373 28.4867508,46.8212177 25.148119,45.921127 L33.05797,47.6730665 Z M36.3683844,42.4794546 C36.1567539,43.098981 35.9617973,43.6499533 35.782232,44.138719 C35.4423406,44.8077568 35.1178404,45.4031623 34.8100142,45.918588 C34.4111228,46.4238575 34.0237748,46.8618424 33.6492529,47.228734 C33.6312964,47.2426988 33.6133398,47.257933 33.5953833,47.2718978 L17.0702461,43.6105981 C15.7863543,43.2208551 14.6473973,42.86285 13.6379838,42.534044 C12.265592,41.9551423 11.0304393,41.3889357 9.95176494,40.8468501 C8.90643842,40.2070113 7.98937283,39.5773287 7.20826382,38.9654194 L14.1741145,8.16556146 C14.3831798,7.54730455 14.5768538,6.99506275 14.7551365,6.50121894 C15.0860496,5.83598974 15.4041367,5.24058422 15.7068325,4.71754141 C16.0800718,4.22877569 16.4443328,3.79840794 16.7970503,3.42897722 C16.9355721,3.31218126 17.0740939,3.20046338 17.2126157,3.09382358 L33.3132093,6.66117863 C34.636862,7.06107787 35.8091668,7.42796954 36.8467977,7.7643927 C38.2551026,8.35472014 39.5197553,8.93108284 40.6253644,9.48332464 C41.6822344,10.1244329 42.6121261,10.7566546 43.4047786,11.3711029 L36.3683844,42.4794546 Z M17.7602899,2.69265483 C17.8257029,2.64822158 17.891116,2.60251881 17.9565291,2.56062461 C19.446921,2.86657926 22.0121394,3.49499233 25.0455102,4.30621649 L17.7602899,2.69265483 Z M40.5471253,30.5116766 C42.435126,23.81876 44.3500616,16.362861 45.0849967,12.9554656 C45.3312577,13.2334908 45.5621273,13.5102464 45.7737578,13.7857326 C45.5877795,16.2308307 43.1764742,24.8483418 40.5368644,32.4286539 C39.6236466,35.0502155 38.7360811,37.4064472 37.895972,39.4516461 C38.6976028,36.9100643 39.5954292,33.8847949 40.5471253,30.5116766 Z M10.0941346,19.8362714 C8.20869901,26.5228405 6.29504605,33.9723919 5.55754575,37.3835958 C5.32026305,37.1119182 5.09965426,36.8415102 4.89571939,36.5723717 C5.09067599,34.1044221 7.4981335,25.5097624 10.1313302,17.9472236 C10.9881132,15.4868912 11.8230918,13.2614202 12.6170269,11.3063573 C11.8474614,13.7603421 10.9945262,16.6421557 10.0941346,19.8362714 Z M32.2076001,48.2011874 C32.1601436,48.2278474 32.1114044,48.2545073 32.0639479,48.2798977 C30.0797514,48.085661 25.5572713,46.8529557 20.8359868,45.2482807 C25.2443147,46.5076459 29.7488383,47.6730665 32.2076001,48.2011874 Z M29.4730773,5.00445324 C25.2686842,3.80856411 21.0258129,2.71169765 18.5978337,2.18103772 C18.6440076,2.15564729 18.6901816,2.13152638 18.7363555,2.10740548 C20.733378,2.33718884 24.9852276,3.49372281 29.4730773,5.00445324 Z M46.685693,15.8639391 C46.685693,18.8244629 44.1461267,27.1753745 41.0229733,34.4802004 C39.7852554,37.3759787 38.5719071,39.8718577 37.4124283,41.9272128 C38.4423635,39.6116058 39.6377553,36.5685631 41.0216907,32.5936917 C43.5343221,25.3764627 45.7711926,17.4876569 46.2175406,14.40272 C46.2816711,14.4979341 46.3432363,14.5918786 46.403519,14.6870927 C46.5894973,15.0971481 46.685693,15.4906998 46.685693,15.8639391 Z M33.6633616,5.95532475 C28.5906421,4.04977317 23.0266833,2.38162209 19.9368777,1.79002513 C22.817618,1.92967248 28.5252291,3.67780341 33.921166,6.05434742 C33.8352312,6.02007034 33.750579,5.98706279 33.6633616,5.95532475 Z M4.01071903,34.5373289 C4.01071903,31.5768051 6.55028529,23.2258935 9.67343874,15.9210675 C10.844461,13.1814404 11.9936788,10.7998183 13.0954401,8.81047831 C12.1027006,11.0778435 10.9598958,14.0104378 9.64650394,17.7809163 C7.14028553,24.9816415 4.90726288,32.850135 4.45450182,35.9503062 C4.39165397,35.8550921 4.33137134,35.759878 4.27237131,35.6659334 C4.10050168,35.2723818 4.01071903,34.8953339 4.01071903,34.5373289 Z M17.0061156,44.4192832 C22.1750308,46.3603814 27.8544244,48.056462 30.9057518,48.6175904 C28.0288593,48.531263 22.0711395,46.7069608 16.5033328,44.228855 C16.670072,44.2923311 16.8368112,44.3558072 17.0061156,44.4192832 Z M41.4962561,34.6782458 C44.5244965,27.593047 47.0089105,19.5036568 47.1884758,16.2206746 C47.4514107,16.9049466 47.5860847,17.5714453 47.5860847,18.2125536 C47.5860847,22.1163318 45.0311271,29.8197875 41.5116474,36.5304774 C39.9032554,39.5963716 38.2692113,42.1519181 36.6736454,44.1323714 C38.2140591,41.7228199 39.8737554,38.4741147 41.4962561,34.6782458 Z M9.20015594,15.7242917 C6.18345905,22.7802915 3.70802326,30.831596 3.51050144,34.1412382 C3.26552307,33.4810871 3.13854476,32.8374398 3.13854476,32.2179134 C3.13854476,28.3141351 5.69350233,20.6106795 9.21298203,13.8999895 C10.7495479,10.9699342 12.3104833,8.50452366 13.8393535,6.56215597 C12.3489616,8.93869997 10.7585261,12.0794958 9.20015594,15.7242917 Z M42.4129818,9.80318901 C42.3841274,9.77966901 42.3535756,9.75614902 42.3230239,9.73262902 C42.3298131,9.73598902 42.3382997,9.73934902 42.345089,9.74102902 C42.3671542,9.76118902 42.3892193,9.78302901 42.4129818,9.80318901 Z M37.0943413,6.97601993 C36.609515,6.73481087 36.1131452,6.49360181 35.6026667,6.25620132 C30.7467082,3.98756663 25.3789886,2.16453394 21.8582263,1.52215612 C25.8214888,1.8001813 31.9908392,3.97360189 37.2867326,7.00014084 C37.3046892,7.01029701 37.3226457,7.0217227 37.3418848,7.03187887 L37.0943413,6.97601993 Z M9.57724305,41.6618828 C9.65804743,41.6923513 9.74269964,41.7228199 9.82606924,41.7545579 C10.0030693,41.878971 10.1826346,42.0021146 10.3660477,42.1252581 L10.0184606,42.0478173 C9.83761272,41.90817 9.65933004,41.7672531 9.48361257,41.6263362 C9.5156778,41.6377619 9.54646043,41.6491876 9.57724305,41.6618828 Z M13.3737663,43.3109911 C13.9291361,43.5902858 14.5024625,43.8695805 15.0924627,44.1450666 C20.0458995,46.4594041 25.5329017,48.3103662 29.047251,48.9171975 C25.0929668,48.6950312 18.8145947,46.5012983 13.4366142,43.4290566 C13.3391359,43.3731976 13.2442228,43.3173387 13.1467445,43.2614798 L13.3737663,43.3109911 Z M36.2272974,45.4260137 C38.7501898,42.5721297 40.8549515,38.8854396 41.9669737,36.7627999 C45.5198012,29.9886338 48.0991284,22.1861555 48.0991284,18.2112841 C48.0991284,18.1122614 48.0952805,18.0132387 48.0888675,17.9129465 C48.3492372,18.8079591 48.4851937,19.6928155 48.4851937,20.5586291 C48.4851937,25.3320294 45.8802144,32.5721098 42.0028867,38.5769459 C40.1469512,41.4498728 38.1794287,43.8022959 36.1965148,45.560583 L36.2272974,45.4260137 Z M41.0640168,8.68606522 C40.9588428,8.64671006 40.8485384,8.60608537 40.7395167,8.56546069 C40.5522557,8.43596951 40.3624295,8.30647833 40.1687556,8.17698715 L40.5368644,8.25823652 C40.7292558,8.40423148 40.9190819,8.55149595 41.1050603,8.70002996 C41.0909516,8.69622139 41.0781255,8.69114331 41.0640168,8.68606522 Z M38.9284724,7.38226677 C38.4808418,7.10551111 38.0203851,6.8312945 37.5432545,6.55961692 C32.9617743,3.94186386 27.7184679,1.95506291 23.7680315,1.25682616 C28.407229,1.62498735 34.302101,3.90758678 39.1888421,7.28197458 C39.3004291,7.35941539 39.4094509,7.43685619 39.5197553,7.51429699 L38.9284724,7.38226677 Z M14.3152015,5.20884618 C11.8731136,8.03226171 9.84274316,11.5945387 8.75637315,13.665128 C5.20354561,20.4392941 2.62421846,28.2417724 2.62421846,32.2166438 C2.62421846,32.2915456 2.62806629,32.3664474 2.63191412,32.4413491 C2.38950098,31.5806136 2.26508788,30.7300343 2.26508788,29.8959588 C2.26508788,25.1225584 4.87006721,17.8812085 8.74739488,11.8776419 C10.5379174,9.10627679 12.4323312,6.81732976 14.3447015,5.08062453 L14.3152015,5.20884618 Z M8.00989458,41.0436259 C8.29463383,41.2975302 8.58835134,41.5488954 8.89104711,41.7977216 L8.25872077,41.6580743 C7.94704673,41.3622758 7.64435095,41.0626687 7.35191605,40.7579836 C7.55200309,40.8481196 7.77004666,40.9433337 8.00989458,41.0436259 Z M11.5858091,42.9149004 C12.0988528,43.2348198 12.6285704,43.5534697 13.181375,43.868311 C17.8577682,46.5406535 23.2242051,48.5566534 27.2002937,49.2142655 C22.529031,48.9019632 16.5264198,46.6015905 11.5627221,43.1738828 C11.3780264,43.0456611 11.1946133,42.9174395 11.0137654,42.7879483 L11.5858091,42.9149004 Z M35.1011665,47.1563713 C35.1139926,47.1297114 35.1268187,47.1030514 35.1396448,47.0763915 C35.2153187,47.0205325 35.2897101,46.9659431 35.365384,46.9075451 L35.3410145,47.0154545 C35.2614927,47.0624267 35.1819709,47.109399 35.1011665,47.1563713 Z M36.0092539,46.3895804 C38.2102113,44.555122 40.3944948,42.0110012 42.435126,38.8511625 C46.3611929,32.7726942 48.9982374,25.4221655 48.9982374,20.5598986 C48.9982374,20.0254301 48.9482157,19.4858835 48.8533026,18.9412589 C49.2034549,20.2615611 49.3855854,21.59075 49.3855854,22.9085131 C49.3855854,28.6238984 46.8113887,35.2469913 42.4979739,40.6259534 C40.4971035,43.1205629 38.2743417,45.149258 35.952819,46.6384066 L36.0092539,46.3895804 Z M43.2983221,9.593773 C43.0892568,9.49982842 42.8622349,9.40080575 42.6108435,9.29543548 C42.3119956,9.03264455 42.0028867,8.77239267 41.6860823,8.51467983 L42.3414956,8.65940527 C42.6698435,8.96662944 42.9892132,9.27766218 43.2983221,9.593773 Z M40.7587558,7.78851361 C40.3470382,7.47621135 39.9224946,7.16898718 39.4825596,6.86557157 C35.1627318,3.88219635 30.0579471,1.74178332 25.6868149,0.990226669 C30.9326866,1.43202011 36.5723193,3.81745076 41.0922342,7.56126929 C41.2551256,7.69583855 41.4154517,7.83167734 41.5732127,7.96878565 L40.7587558,7.78851361 Z M15.3977237,3.49118377 C15.3861802,3.51530468 15.3746367,3.5406951 15.3643758,3.56481601 C15.3028106,3.6117883 15.2412454,3.66256916 15.1809627,3.71081097 L15.2040497,3.60924926 C15.2681802,3.5698941 15.3323106,3.53053893 15.3977237,3.49118377 Z M14.5345277,4.24020138 C12.4028312,6.06069502 10.2916564,8.54387883 8.31515557,11.6046949 C4.38908875,17.6831632 1.75204419,25.0336919 1.75204419,29.8959588 C1.75204419,30.356795 1.79052247,30.8227094 1.86106598,31.2924323 C1.55323977,30.0546489 1.39291361,28.8092485 1.39291361,27.5752737 C1.39291361,21.8598885 3.96711032,15.2367955 8.28052513,9.85783345 C10.2134172,7.44828188 12.354092,5.47544567 14.5883973,4.00026184 L14.5345277,4.24020138 Z M6.77217668,40.8874748 C6.94917675,41.0766335 7.13002465,41.2632531 7.31472038,41.4486032 L6.6772636,41.3076864 L6.77217668,40.8874748 Z M9.79785183,42.5188098 C10.269852,42.8806233 10.7598087,43.2386284 11.2690046,43.5902858 C15.6773325,46.634598 20.9039651,48.8042101 25.3340973,49.5113335 C20.0202473,49.1241294 14.2754406,46.7234645 9.68626483,42.921248 C9.45796039,42.7320893 9.23478638,42.5391221 9.0141776,42.3448853 L9.79785183,42.5188098 Z M33.7031973,48.4893603 C33.7116839,48.4910403 33.7201705,48.4910403 33.7286571,48.4927203 C33.6811321,48.5095203 33.6319099,48.5263203 33.5843849,48.5431203 C33.6234233,48.5246403 33.6641589,48.5078403 33.7031973,48.4893603 Z M34.6189055,48.0183763 L34.7997534,48.060707 C34.6997098,48.1030377 34.5996663,48.1453685 34.4996228,48.1863763 C34.5368185,48.1374314 34.5765794,48.0818724 34.6189055,48.0183763 Z M43.843431,9.42365714 C43.6664309,9.23830702 43.485583,9.05422642 43.3021699,8.87268486 L43.9370614,9.01360173 L43.843431,9.42365714 Z M15.4246585,2.69646339 L15.6645064,2.74978329 C15.5618977,2.80691175 15.4605715,2.86657926 15.3579628,2.92624676 L15.4079846,2.70408052 C15.413115,2.70027196 15.419528,2.69900243 15.4246585,2.69646339 Z M8.00989458,42.1227191 C8.44085128,42.5276964 8.8897645,42.9237871 9.35663426,43.3109911 C13.499462,46.7437769 18.5747467,49.0543058 23.4525096,49.8084015 C17.0035504,49.3107491 11.238222,46.3692681 7.10180725,41.9221347 L8.00989458,42.1227191 Z M35.7206668,47.6641799 L35.7950581,47.3341043 C38.3217983,45.7916358 40.7395167,43.63218 42.8994306,40.9395252 C47.2821063,35.4742357 49.8986291,28.7330772 49.8986291,22.9072436 C49.8986291,18.9247551 48.300498,14.8394353 45.3979533,11.198448 C45.3979533,11.1882918 45.399236,11.1768661 45.399236,11.1679795 C45.399236,10.9521609 45.2658446,10.6855614 44.6360835,10.2869317 C44.5155182,10.1485538 44.3923877,10.0127151 44.266692,9.87560674 L44.3859747,9.35129442 C48.0644979,13.6448157 50.2859771,19.1977022 50.2859771,25.2558582 C50.2859771,35.1936714 44.3064529,43.7769054 35.7206668,47.6641799 Z M42.5890392,8.19349093 C42.211952,7.84691159 41.8246041,7.50541035 41.4218648,7.17152622 C37.3701022,3.81491172 32.4269263,1.53104277 27.6479243,0.727435746 C33.8865356,1.28221658 39.4697335,4.12594446 43.5291917,8.40169243 L42.5890392,8.19349093 Z M14.7487234,3.29440796 C12.3066355,4.82672025 9.97100408,6.93412573 7.87906844,9.54299215 C3.49639273,15.0070121 0.879869925,21.7494401 0.879869925,27.5752737 C0.879869925,31.4955557 2.42926186,35.5135908 5.2445891,39.1101449 C5.24330649,39.1355353 5.24202388,39.1596562 5.24202388,39.178699 C5.24202388,39.3983262 5.38182829,39.6738124 6.05006769,40.0876763 C6.1488286,40.2019333 6.24887212,40.3149207 6.35019825,40.4279081 L6.23348081,40.9420642 C2.66654457,36.6790114 0.519456734,31.2111829 0.519456734,25.2558582 C0.519456734,15.4183371 6.37713304,6.91127434 14.8218321,2.96814097 L14.7487234,3.29440796 Z" id="Shape"></path>
                        </g>
                    </g>
                </g>
            </g>
        </g>
    </g>
</svg>