<?xml version="1.0" encoding="UTF-8"?>
<svg width="42px" height="42px" viewBox="0 0 42 42" version="1.1" xmlns="http://www.w3.org/2000/svg" xmlns:xlink="http://www.w3.org/1999/xlink">
    <!-- Generator: Sketch 61.1 (89650) - https://sketch.com -->
    <title>Group</title>
    <desc>Created with Sketch.</desc>
    <defs>
        <linearGradient x1="-1.11022302e-14%" y1="50%" x2="100%" y2="50%" id="linearGradient-1">
            <stop stop-color="#C3AD72" offset="0%"></stop>
            <stop stop-color="#F0E6C3" offset="100%"></stop>
        </linearGradient>
    </defs>
    <g id="Symbols" stroke="none" stroke-width="1" fill="none" fill-rule="evenodd">
        <g id="layout/header" transform="translate(-375.000000, -17.000000)" fill="url(#linearGradient-1)" fill-rule="nonzero">
            <g id="Group" transform="translate(375.000000, 17.000000)">
                <g id="Group-15">
                    <g id="Logo-Copy-3" transform="translate(0.489151, 0.000000)">
                        <path d="M35.9948065,7.15879258 L36.0134701,7.07345736 L35.8952674,7.04639985 C32.1314434,2.78692347 26.6412375,0.0978233031 20.5361699,0.0978233031 C17.6578296,0.0978233031 14.9163557,0.69621053 12.427877,1.77434821 L12.1437757,1.71086713 L12.0971167,1.92004249 C4.97384666,5.15653688 0.00622119657,12.3590377 0.00622119657,20.7031574 C0.00622119657,25.8003759 1.86117464,30.4709183 4.92718769,34.0716483 L4.90333977,34.177797 L5.04331669,34.2090172 C8.81025122,38.5559102 14.3585217,41.3084914 20.5361699,41.3084914 C31.8566739,41.3084914 41.0661186,32.06523 41.0661186,20.7031574 C41.0661186,15.522685 39.1510269,10.7824175 35.9948065,7.15879258 Z M4.66797116,31.9361865 C4.66900803,31.9257797 4.6700449,31.9164137 4.67211863,31.9060069 C4.75195732,31.9715694 4.83698034,32.0381725 4.92511396,32.1058162 C5.04020609,32.2327784 5.15840883,32.3597405 5.27972216,32.485662 L5.25380051,32.6011768 C5.22684199,32.5855667 5.19988347,32.5699566 5.17499868,32.5553871 C5.00184205,32.3514152 4.83179601,32.1453618 4.66797116,31.9361865 Z M36.2737235,9.31194592 C36.2716498,9.33171872 36.2685392,9.35253218 36.2654286,9.375427 C36.2021797,9.32339333 36.137894,9.27135966 36.0694609,9.21932598 C35.929484,9.06634699 35.7853596,8.91336799 35.6370877,8.760389 L35.6598988,8.65736233 C35.7096683,8.68546051 35.7542536,8.71147735 35.7967651,8.73645351 C35.9605899,8.92689675 36.1192304,9.11838066 36.2737235,9.31194592 Z M5.46739492,31.6458386 C5.39896176,31.5886015 5.33260233,31.5303238 5.26727977,31.4730868 C5.11693418,31.3232298 4.9728098,31.1723322 4.83386974,31.0224752 C5.34089726,28.5581605 6.85161116,22.5139291 8.55932962,16.3708338 C9.08191013,14.4913776 9.55161047,12.8564796 9.97465184,11.4338791 L5.46739492,31.6458386 Z M35.4473412,9.61270054 C35.5385854,9.68971038 35.6287928,9.76567954 35.7148527,9.8416487 C35.8506821,9.97589557 35.9802904,10.1101424 36.1057512,10.2443893 C35.5987237,12.7066227 34.0890466,18.753976 32.3792544,24.9001933 C31.8110518,26.9419946 31.306098,28.693448 30.8560981,30.1982618 L35.4473412,9.61270054 Z M26.7241868,39.0793689 C26.6661223,39.1209959 26.6080578,39.1595008 26.5489564,39.1990464 C25.3109383,38.9472034 23.028796,38.3810771 20.3298335,37.6432396 L26.7241868,39.0793689 Z M29.4003381,34.8219739 C29.2292552,35.3298225 29.0716516,35.7814748 28.9264903,36.1821341 C28.6517208,36.730569 28.3893937,37.2186448 28.1405458,37.6411582 C27.8180805,38.0553463 27.5049469,38.4143786 27.202182,38.7151332 C27.1876659,38.7265806 27.1731498,38.7390687 27.1586336,38.7505161 L13.7996509,35.7492139 C12.7617479,35.4297272 11.8410108,35.1362573 11.0249972,34.8667229 C9.91555047,34.3921758 8.91704842,33.9280354 8.04504404,33.4836679 C7.19999817,32.9591684 6.45863891,32.4429944 5.82718746,31.9413898 L11.4584072,6.69361155 C11.6274164,6.18680359 11.7839832,5.73411064 11.9281076,5.32928867 C12.195619,4.78397579 12.4527618,4.29589995 12.6974622,3.86714249 C12.9991902,3.46648322 13.2936602,3.11369493 13.5787984,2.81085896 C13.6907799,2.715117 13.8027615,2.62353774 13.914743,2.53612117 L26.9305231,5.46041353 C28.0005689,5.78822566 28.9482645,6.08898028 29.7870892,6.36475874 C30.9255682,6.84867189 31.9479181,7.32113763 32.8416967,7.77383058 C33.6960744,8.29937067 34.4478023,8.81762604 35.0885855,9.32131198 L29.4003381,34.8219739 Z M14.3574848,2.20726836 C14.410365,2.17084479 14.4632452,2.13338055 14.5161253,2.09903832 C15.7209637,2.34984062 17.7946959,2.86497397 20.2468843,3.5299643 L14.3574848,2.20726836 Z M32.7784479,25.0115454 C34.3047148,19.525115 35.8527559,13.4132399 36.4468801,10.6200724 C36.6459584,10.8479799 36.8325943,11.0748467 37.0036772,11.3006729 C36.8533316,13.3050099 34.9040234,20.3691012 32.770153,26.5829623 C32.0319043,28.7319529 31.314393,30.6634428 30.6352457,32.3399677 C31.283287,30.2565395 32.0090932,27.7766147 32.7784479,25.0115454 Z M8.16013617,16.2605225 C6.63594301,21.7417495 5.0889388,27.8484212 4.49274079,30.6447107 C4.30092057,30.4220066 4.1225796,30.2003432 3.95771789,29.9797204 C4.11532153,27.9566512 6.0615192,20.9112921 8.19020529,14.7120004 C8.88283184,12.6951753 9.55783167,10.8708747 10.1996518,9.26823764 C9.57753213,11.2798594 8.88801617,13.6421881 8.16013617,16.2605225 Z M26.0367445,39.5122891 C25.9983805,39.5341432 25.9589796,39.5559974 25.9206155,39.5768108 C24.3165837,39.4175878 20.6605938,38.4070939 16.8438897,37.0916827 C20.4075985,38.1240307 24.0490722,39.0793689 26.0367445,39.5122891 Z M23.826146,4.10233469 C20.427299,3.12202031 16.9973459,2.22287846 15.0345584,1.78787697 C15.0718856,1.7670635 15.1092127,1.7472907 15.1465399,1.72751791 C16.7609404,1.9158798 20.1981515,2.8639333 23.826146,4.10233469 Z M37.740889,13.0042553 C37.740889,15.4311057 35.6878942,22.2766556 33.1631252,28.2646906 C32.1625494,30.6384667 31.1816741,32.6844307 30.2443471,34.369281 C31.0769506,32.4710926 32.0433098,29.9765984 33.1620883,26.7182498 C35.193309,20.8020213 37.0016035,14.3352766 37.3624329,11.8064402 C37.4142762,11.8844907 37.4640458,11.9615005 37.5127785,12.039551 C37.6631241,12.3756885 37.740889,12.6982973 37.740889,13.0042553 Z M27.2135876,4.8817991 C23.1127821,3.31974827 18.614857,1.95230337 16.1170466,1.46734955 C18.4458478,1.58182363 23.059902,3.01483095 27.4219976,4.96297162 C27.3525276,4.93487344 27.2840944,4.90781593 27.2135876,4.8817991 Z M3.24228028,28.3115209 C3.24228028,25.8846704 5.29527515,19.0391205 7.82004409,13.0510856 C8.76670284,10.8053123 9.69573486,8.85300893 10.5864028,7.22227366 C9.78386848,9.08091642 8.86002079,11.4848721 7.79826991,14.5756722 C5.77223356,20.4783719 3.96704968,26.9284659 3.60103595,29.4697904 C3.55022951,29.3917399 3.50149681,29.3136894 3.45380097,29.2366796 C3.31486091,28.9140708 3.24228028,28.6049908 3.24228028,28.3115209 Z M13.7478076,36.4121229 C17.9263779,38.0033126 22.517621,39.3936523 24.9843254,39.85363 C22.6586348,39.7828642 17.8423918,38.2874164 13.3413561,36.2560219 C13.4761486,36.3080556 13.6109412,36.3600892 13.7478076,36.4121229 Z M33.5457288,28.4270356 C35.9937696,22.6190372 38.0021793,15.987866 38.1473405,13.2966845 C38.3598981,13.8576075 38.468769,14.4039611 38.468769,14.9295011 C38.468769,18.129572 36.4033318,24.4443784 33.5581712,29.9453782 C32.2579411,32.4586045 30.9369737,34.5534802 29.6471123,36.1769307 C30.8923885,34.2017325 32.2340932,31.5386492 33.5457288,28.4270356 Z M7.43744051,12.8897812 C4.99873145,18.6738442 2.99757988,25.2737951 2.8379025,27.9868308 C2.63986108,27.4456806 2.53721134,26.9180591 2.53721134,26.4102105 C2.53721134,23.2101397 4.6026486,16.8953333 7.44780917,11.3943335 C8.68997475,8.99245917 9.95184079,6.97147136 11.1877852,5.379241 C9.98294677,7.32738167 8.69723281,9.90200776 7.43744051,12.8897812 Z M34.2868133,8.03603519 C34.2634873,8.01675498 34.2387891,7.99747477 34.214091,7.97819456 C34.2195794,7.98094888 34.22644,7.98370319 34.2319285,7.98508035 C34.2497661,8.00160624 34.2676036,8.0195093 34.2868133,8.03603519 Z M29.9872044,5.71850054 C29.595269,5.52077259 29.1940018,5.32304463 28.7813291,5.1284387 C24.855754,3.26875527 20.5164694,1.77434821 17.670272,1.24776745 C20.8741882,1.47567493 25.8615142,3.25730786 30.1427343,5.73827334 C30.1572504,5.74659872 30.1717665,5.75596478 30.1873195,5.76429017 L29.9872044,5.71850054 Z M7.74227914,34.1517802 C7.8076017,34.1767564 7.87603486,34.2017325 7.94343116,34.2277494 C8.08651868,34.3297354 8.23167993,34.4306807 8.37995179,34.531626 L8.09896107,34.4681449 C7.95276295,34.3536709 7.80863857,34.2381561 7.66658791,34.1226413 C7.69250956,34.1320074 7.71739435,34.1413735 7.74227914,34.1517802 Z M10.8114028,35.503615 C11.2603658,35.7325632 11.7238449,35.9615113 12.2008033,36.1873374 C16.2051802,38.0844851 20.6408934,39.601787 23.4819065,40.0992289 C20.2852483,39.917111 15.2097888,38.1188273 10.8622092,35.6003976 C10.7834074,35.554608 10.7066793,35.5088184 10.6278775,35.4630287 L10.8114028,35.503615 Z M29.2862829,37.2373769 C31.3257985,34.8979431 33.0272957,31.8758274 33.9262587,30.1358214 C36.7983777,24.5827879 38.8835155,18.186809 38.8835155,14.9284605 C38.8835155,14.8472879 38.8804049,14.7661154 38.8752205,14.6839022 C39.0857043,15.417577 39.1956122,16.1429264 39.1956122,16.8526656 C39.1956122,20.7655978 37.0897371,26.7005584 33.9552909,31.6229437 C32.4549457,33.9779877 30.8643931,35.9063556 29.2613981,37.3476883 L29.2862829,37.2373769 Z M33.1963049,7.12028766 C33.1112819,7.08802678 33.0221114,7.05472523 32.9339778,7.02142368 C32.7825954,6.91527499 32.6291392,6.8091263 32.4725724,6.70297761 L32.770153,6.76958071 C32.9256829,6.88925816 33.0791391,7.00997628 33.2294846,7.13173507 C33.2180791,7.12861305 33.2077105,7.12445035 33.1963049,7.12028766 Z M31.4699229,6.05151604 C31.1080566,5.82464923 30.7358217,5.59986377 30.3501075,5.37715965 C26.6464218,3.23129102 22.4077132,1.60263709 19.2141656,1.0302667 C22.9645103,1.332062 27.7299469,3.20319284 31.6804067,5.96930284 C31.770614,6.03278392 31.8587477,6.096265 31.9479181,6.15974608 L31.4699229,6.05151604 Z M11.5724625,4.26988311 C9.59826945,6.58434084 7.95691042,9.50447051 7.07868484,11.2018089 C4.20656575,16.7548423 2.12142803,23.1508213 2.12142803,26.4091698 C2.12142803,26.4705696 2.12453863,26.5319693 2.12764923,26.593369 C1.93168154,25.8877924 1.83110553,25.1905412 1.83110553,24.5068188 C1.83110553,20.5938867 3.93698057,14.6578854 7.07142677,9.73654068 C8.51889184,7.46475057 10.0503431,5.58841636 11.5963104,4.1647751 L11.5724625,4.26988311 Z M6.47522877,33.6449722 C6.70541304,33.8531069 6.94285538,34.0591603 7.18755578,34.2631323 L6.67638079,34.1486582 C6.42442233,33.9061813 6.17972193,33.6605823 5.94331646,33.4108207 C6.10506757,33.4847085 6.28133481,33.562759 6.47522877,33.6449722 Z M9.36601144,35.1789249 C9.78075788,35.4411746 10.2089836,35.7023836 10.6558729,35.9604706 C14.4362867,38.1510882 18.7745344,39.8036776 21.9888193,40.3427465 C18.212553,40.0867408 13.3600196,38.2010405 9.34734785,35.3912223 C9.19803914,35.2861143 9.04976728,35.1810062 8.90356916,35.0748575 L9.36601144,35.1789249 Z M28.3759144,38.6558148 C28.3862831,38.6339607 28.3966518,38.6121066 28.4070204,38.5902524 C28.4681955,38.5444628 28.5283338,38.4997138 28.5895089,38.4518428 L28.5698084,38.5403001 C28.5055227,38.578805 28.441237,38.6173099 28.3759144,38.6558148 Z M29.1100156,38.0272481 C30.8892779,36.523475 32.6550608,34.4379654 34.3047148,31.8477292 C37.4785619,26.8649848 39.6103586,20.8394856 39.6103586,16.8537063 C39.6103586,16.4155828 39.5699208,15.9732966 39.4931927,15.5268477 C39.7762572,16.6091481 39.9234922,17.6987332 39.9234922,18.7789522 C39.9234922,23.464064 37.8425019,28.8932573 34.3555212,33.3025907 C32.7380101,35.347514 30.9411212,37.0105101 29.0643935,38.2312201 L29.1100156,38.0272481 Z M35.0025257,7.86436917 C34.8335165,7.78735933 34.6499912,7.70618681 34.4467654,7.61981091 C34.2051756,7.40439151 33.9552909,7.19105345 33.699185,6.97979675 L34.2290236,7.09843352 C34.4944613,7.35027649 34.7526409,7.60524148 35.0025257,7.86436917 Z M32.9495308,6.38453154 C32.6166968,6.12852587 32.2734941,5.8766829 31.917849,5.62796195 C28.425684,3.18237937 24.298957,1.42780396 20.7653173,0.811725281 C25.0060996,1.17387964 29.5651999,3.12930503 33.219116,6.19825099 C33.350798,6.30856238 33.4804062,6.41991444 33.6079408,6.53230717 L32.9495308,6.38453154 Z M12.4475775,2.86185195 C12.4382457,2.88162475 12.4289139,2.90243822 12.420619,2.92221101 C12.3708494,2.96071593 12.3210798,3.00234287 12.2723471,3.04188846 L12.2910107,2.95863458 C12.342854,2.92637371 12.3946973,2.89411283 12.4475775,2.86185195 Z M11.7497666,3.47584928 C10.0264951,4.96817499 8.31981355,7.00373224 6.7220029,9.51279589 C3.54815578,14.4955403 1.41635909,20.5210395 1.41635909,24.5068188 C1.41635909,24.8845832 1.44746507,25.2665104 1.50449271,25.6515596 C1.25564484,24.636903 1.12603658,23.6160023 1.12603658,22.6044677 C1.12603658,17.9193559 3.20702683,12.4901626 6.69400751,8.08082924 C8.25656472,6.10563106 9.98709423,4.48842454 11.793315,3.279162 L11.7497666,3.47584928 Z M5.47465299,33.5169694 C5.61774051,33.6720297 5.76393863,33.8250087 5.91324734,33.9769471 L5.39792489,33.8614323 L5.47465299,33.5169694 Z M7.92062011,34.8542348 C8.30218683,35.1508267 8.69826968,35.4442966 9.10990552,35.7325632 C12.6736143,38.2280981 16.8988436,40.006609 20.4801791,40.5862641 C16.1844429,40.2688587 11.5403196,38.3009452 7.83041276,35.1841283 C7.64585059,35.0290679 7.46543589,34.8708855 7.28709492,34.7116625 L7.92062011,34.8542348 Z M27.2457909,39.748515 C27.2526515,39.7498922 27.2595121,39.7498922 27.2663727,39.7512693 C27.2279533,39.7650409 27.1881619,39.7788125 27.1497425,39.7925841 C27.1813013,39.7774353 27.2142321,39.7636637 27.2457909,39.748515 Z M27.9860528,39.3624321 L28.1322509,39.3971321 C28.0513754,39.4318322 27.9704998,39.4665322 27.8896242,39.5001479 C27.9196934,39.460026 27.9518362,39.4144822 27.9860528,39.3624321 Z M35.4431938,7.72491893 C35.3001062,7.57298061 35.1539081,7.42208296 35.0056363,7.27326666 L35.518885,7.38878141 L35.4431938,7.72491893 Z M12.4693517,2.21039038 L12.6632456,2.25409867 C12.5802963,2.30092897 12.4983839,2.34984062 12.4154346,2.39875227 L12.4558724,2.21663442 C12.4600199,2.2135124 12.4652042,2.21247173 12.4693517,2.21039038 Z M6.47522877,34.5295447 C6.82361578,34.8615195 7.18651891,35.1862096 7.56393817,35.503615 C10.9130157,38.317596 15.0158948,40.2116216 18.9590966,40.8297817 C13.7457338,40.4218377 9.08502073,38.0105973 5.74112757,34.3651183 L6.47522877,34.5295447 Z M28.8767208,39.0720842 L28.936859,38.8015091 C30.9794852,37.5370909 32.9339778,35.7669054 34.6800603,33.559637 C38.2230318,29.0795379 40.3382386,23.5535619 40.3382386,18.7779115 C40.3382386,15.5133189 39.0463034,12.1644318 36.6998755,9.17978039 C36.6998755,9.17145501 36.7009123,9.16208895 36.7009123,9.15480423 C36.7009123,8.97788975 36.5930783,8.75934832 36.083977,8.43257687 C35.9865116,8.31914346 35.8869724,8.2077914 35.7853596,8.09539867 L35.8817881,7.66560054 C38.8555201,11.1851581 40.6513722,15.7370637 40.6513722,20.7031574 C40.6513722,28.849549 35.8175024,35.8855422 28.8767208,39.0720842 Z M34.4291387,6.71650637 C34.1243001,6.43240252 33.8111665,6.15246136 33.4855906,5.87876425 C30.2101306,3.12722368 26.2140486,1.25505217 22.3506856,0.59630588 C27.3940023,1.05108017 31.9074804,3.38218867 35.1891616,6.88717681 L34.4291387,6.71650637 Z M11.9229232,2.70054757 C9.94873019,3.95664041 8.06059703,5.68415832 6.36946843,7.82274223 C2.82649698,12.3018007 0.711290142,17.8288173 0.711290142,22.6044677 C0.711290142,25.8180673 1.96382439,29.1117987 4.23974547,32.0600266 C4.2387086,32.0808401 4.23767173,32.1006129 4.23767173,32.116223 C4.23767173,32.2962595 4.35069014,32.5220856 4.89089737,32.8613451 C4.97073606,32.9550057 5.05161162,33.0476257 5.13352404,33.1402456 L5.03916923,33.5617184 C2.15564461,30.067137 0.419930769,25.5849565 0.419930769,20.7031574 C0.419930769,12.6389789 5.15529823,5.66542619 11.9820246,2.4330945 L11.9229232,2.70054757 Z" id="Shape"></path>
                    </g>
                </g>
            </g>
        </g>
    </g>
</svg>