<?xml version="1.0" encoding="UTF-8"?>
<svg width="42px" height="48px" viewBox="0 0 42 48" version="1.1" xmlns="http://www.w3.org/2000/svg" xmlns:xlink="http://www.w3.org/1999/xlink">
    <title>Group</title>
    <g id="Page-1" stroke="none" stroke-width="1" fill="none" fill-rule="evenodd">
        <g id="Group" fill="#DAC287" fill-rule="nonzero">
            <path d="M22,0 L22.3936348,0.194195251 L41.5644891,10.5034301 L41.9748744,10.6891821 L42,34.8369393 L38.3819095,37.2010554 L22.2847571,47.8311346 L22,48 L22,0 Z M26.4472362,7.48918206 L26.4472362,39.6664908 L26.6314908,39.5736148 L37.2680067,32.5234828 C37.4046967,32.3906467 37.4830899,32.2082691 37.4857621,32.0168865 L37.4857621,13.7794195 L37.4857621,13.7794195 C37.5119305,13.5501226 37.3860455,13.3306059 37.1758794,13.2390501 L26.7403685,7.63271768 C26.6457877,7.57863149 26.5478778,7.53068875 26.4472362,7.48918206 Z" id="Combined-Shape"></path>
            <path d="M14.559122,39.352787 L14.559122,20.9680238 C13.7321428,21.3118994 12.9051637,21.6390005 12.0781846,21.9912633 C11.9954866,22.0331994 11.9375981,22.2428796 11.9375981,22.377075 C11.9375981,23.7441901 11.9375981,25.1113053 11.9375981,26.4784204 L11.9375981,26.9145553 L7.55460864,26.9145553 C7.55460864,26.8055216 7.55460864,26.6964879 7.55460864,26.5790669 L7.55460864,19.3576795 C7.55460864,19.1563865 7.55460864,19.0138039 7.80270238,18.9215446 C11.4965426,17.4398043 15.1848695,15.9496767 18.8676833,14.451162 L19,14.451162 L19,48 L18.6857479,47.798707 L0.285461957,34.6894985 C0.0936882868,34.5719448 -0.015392957,34.3539386 0.00428904744,34.1275555 C0.00428904744,26.461646 0.00428904744,18.7985322 0.00428904744,11.1382142 C-0.0236087387,10.9257269 0.0865633218,10.7191839 0.277192165,10.6265944 C6.39683784,7.14310676 12.5109703,3.65682334 18.6195896,0.16774419 L18.9503813,0 L18.9503813,12.2201642 L14.5839314,12.2201642 L14.5839314,7.63236065 L14.1952512,7.82526647 C11.027921,9.62851651 7.86886071,11.4401538 4.6932608,13.2350166 C4.48767588,13.3317296 4.36731466,13.552134 4.39554831,13.7801852 C4.39554831,19.7966102 4.39554831,25.8102394 4.39554831,31.8210729 C4.3762819,32.0211264 4.46883409,32.2153325 4.63537226,32.3243054 L14.2779491,39.1850428 C14.3680431,39.2469933 14.4619599,39.3030229 14.559122,39.352787 Z" id="Path"></path>
            <polygon id="Path" points="28 12 35.5604396 16.0607735 34.0659341 18.5469613 30.9978022 16.8895028 30.9978022 30.6546961 34.3120879 28.5662983 36 30.9281768 28.0175824 36"></polygon>
        </g>
    </g>
</svg>