<?xml version="1.0" encoding="UTF-8"?>
<svg width="255px" height="32px" viewBox="0 0 255 32" version="1.1" xmlns="http://www.w3.org/2000/svg" xmlns:xlink="http://www.w3.org/1999/xlink">
    <title>Group</title>
    <g id="Page-1" stroke="none" stroke-width="1" fill="none" fill-rule="evenodd">
        <g id="Group" fill="#001939">
            <path d="M0,23.6669447 L0,8.33348671 C0,3.66723226 2.39019001,1 7,1 C11.6093681,1 14,3.66723226 14,8.33348671 L14,10.8337743 L9.56076005,10.8337743 L9.56076005,8.04187277 C9.56076005,5.95829978 8.62174105,5.1667146 7.12814848,5.1667146 C5.63411401,5.1667146 4.69509501,5.95829978 4.69509501,8.04187277 L4.69509501,23.9999712 C4.69509501,26.0835442 5.63411401,26.8337168 7.12814848,26.8337168 C8.62174105,26.8337168 9.56076005,26.0835442 9.56076005,23.9999712 L9.56076005,18.2919303 L7.2129916,18.2919303 L7.2129916,14.1256471 L14,14.1256471 L14,23.6669447 C14,28.3331991 11.6093681,31 7,31 C2.39019001,31 0,28.3331991 0,23.6669447" id="Fill-1"></path>
            <polygon id="Fill-3" points="31 1 43 1 43 5.14291842 35.3996273 5.14291842 35.3996273 12.8072532 41.43959 12.8072532 41.43959 16.9506005 35.3996273 16.9506005 35.3996273 25.8575105 43 25.8575105 43 30 31 30"></polygon>
            <polygon id="Fill-5" points="60 1 66.5415494 1 69.4585869 21.7561971 69.5414131 21.7561971 72.4580193 1 79 1 79 30 74.6667196 30 74.6667196 8.04283263 74.583462 8.04283263 71.2497048 30 67.4159704 30 64.083076 8.04283263 63.9998184 8.04283263 63.9998184 30 60 30"></polygon>
            <path d="M149,23.833458 L149,8.16740481 C149,3.66723226 151.246908,1 155.499792,1 C159.753092,1 162,3.66723226 162,8.16740481 L162,11.2504889 L157.826873,11.2504889 L157.826873,7.87579087 C157.826873,5.95829978 156.94456,5.16714598 155.620259,5.16714598 C154.296373,5.16714598 153.413644,5.95829978 153.413644,7.87579087 L153.413644,24.1669159 C153.413644,26.0835442 154.296373,26.8337168 155.620259,26.8337168 C156.94456,26.8337168 157.826873,26.0835442 157.826873,24.1669159 L157.826873,19.708156 L162,19.708156 L162,23.833458 C162,28.3336305 159.753092,31 155.499792,31 C151.246908,31 149,28.3336305 149,23.833458" id="Fill-7"></path>
            <path d="M189.161554,1 L194,30 L189.331594,30 L188.482713,24.2417766 L188.482713,24.3245578 L183.177647,24.3245578 L182.328766,30 L178,30 L182.838006,1 L189.161554,1 Z M185.851709,6.05436905 L185.76647,6.05436905 L183.729068,20.3892356 L187.930853,20.3892356 L185.851709,6.05436905 Z" id="Combined-Shape"></path>
            <path d="M216.731493,1 C221.439348,1 223.462986,3.1964563 223.462986,7.6704332 L223.462986,9.45213199 C223.462986,12.4347833 222.512521,14.3404375 220.489311,15.1690947 L220.489311,15.2518746 C222.760506,15.9561475 223.504459,18.1101415 223.504459,21.383166 L223.504459,26.4786358 C223.504459,27.8871815 223.545077,28.923003 224,30 L219.374664,30 C219.12668,29.2541227 218.961642,28.7986186 218.961642,26.4370313 L218.961642,21.1343972 C218.961642,18.4421191 218.177071,17.5714286 216.111959,17.5714286 L214.542817,17.5714286 L214.542817,30 L210,30 L210,1 L216.731493,1 Z M216.607501,5.14328605 L214.542817,5.14328605 L214.542817,13.4290003 L216.194478,13.4290003 C217.888041,13.4290003 218.920169,12.6831231 218.920169,10.3635691 L218.920169,8.12636623 C218.920169,6.0547232 218.218116,5.14328605 216.607501,5.14328605 Z" id="Combined-Shape"></path>
            <path d="M248.084043,1 C252.722768,1 255,3.52718452 255,8.16721884 L255,22.8332101 C255,27.4732444 252.722768,30 248.084043,30 L241,30 L241,1 L248.084043,1 Z M247.999782,5.14291842 L245.638289,5.14291842 L245.638289,25.8575105 L247.999782,25.8575105 C249.475879,25.8575105 250.361275,25.1116222 250.361275,23.0408064 L250.361275,7.96005147 C250.361275,5.88880672 249.475879,5.14291842 247.999782,5.14291842 Z" id="Combined-Shape"></path>
            <path d="M115,7.10542736e-15 C115.094695,0.0476023044 115.179333,0.0874151408 115.261039,0.131988208 L127.733514,7.00100073 L127.733514,7.00100073 C127.819829,7.04903578 127.911171,7.08711763 128,7.12952695 L128,23.2225678 C127.215207,23.7479242 126.427899,24.2685203 125.646039,24.7977713 C122.160349,27.1584129 118.675498,29.5212182 115.190647,31.883158 C115.137014,31.9195088 115.08003,31.9510995 115,32 L115,7.10542736e-15 Z M117.896571,5.00689692 L117.896571,26.4443783 C117.961097,26.410624 117.991684,26.398507 118.018082,26.3803316 C120.325533,24.8163795 122.633823,23.2537257 124.935409,21.6802532 C125.020467,21.6218321 125.081222,21.4586861 125.081222,21.3440078 C125.088764,17.2917534 125.086669,13.2390663 125.091281,9.18637925 C125.091697,9.00938523 125.04016,8.91071863 124.887224,8.82676548 C122.619158,7.58391258 120.354026,6.33456847 118.088055,5.08782084 C118.033585,5.05796121 117.973248,5.03892029 117.896571,5.00689692 Z" id="Combined-Shape"></path>
            <path d="M109.986038,26.2586831 L109.986038,14.0041146 C109.398342,14.2343181 108.829843,14.450322 108.269197,14.6865495 C108.20986,14.7119364 108.173647,14.8535008 108.172775,14.9417096 C108.165794,15.8530571 108.168412,16.7652651 108.168412,17.6766126 L108.168412,17.971359 L105.161431,17.971359 C105.155759,17.8951983 105.144852,17.8220495 105.144852,17.7484705 C105.143543,16.1379069 105.144852,14.5277737 105.142234,12.9176404 C105.141798,12.7803789 105.158377,12.6878673 105.315009,12.6263362 C107.846422,11.6353857 110.375218,10.63669 112.90445,9.64057605 C112.927138,9.63154002 112.953316,9.62981888 112.99651,9.62078285 L112.99651,32 C112.917976,31.950517 112.848168,31.9100701 112.78185,31.8640294 C108.585951,28.9574419 104.390925,26.0499939 100.192845,23.1468488 C100.047993,23.046592 100,22.9394506 100,22.769057 C100.004363,17.6576799 100.004363,12.5458726 100.000873,7.43449556 C100.000873,7.27701058 100.030105,7.17761433 100.187609,7.09069639 C104.386562,4.76929904 108.581152,2.4405868 112.776614,0.113595719 C112.842932,0.0770213395 112.910995,0.0451801154 113,0 L113,8.15479568 L110.005236,8.15479568 L110.005236,5.09330501 C109.888743,5.14881201 109.812827,5.18108352 109.740838,5.22023962 C107.568063,6.42461241 105.396161,7.63242749 103.219459,8.83077626 C103.056283,8.92070621 103.015707,9.02311447 103.015707,9.19307776 C103.019634,13.2059326 103.019634,17.2183571 103.015707,21.2307816 C103.015707,21.3800912 103.049738,21.4794874 103.179756,21.5694174 C105.386562,23.0926327 107.589442,24.6201509 109.79363,26.1463782 C109.847295,26.1838131 109.906632,26.2130727 109.986038,26.2586831" id="Fill-17"></path>
            <path d="M119,8 C120.589311,8.90864198 122.149826,9.80071685 123.736597,10.7076596 C123.425764,11.2552237 123.121284,11.7913182 122.802405,12.354175 C122.162107,11.9905483 121.533666,11.6332935 120.8777,11.2603213 L120.8777,20.4372229 C121.572203,19.9699456 122.248497,19.5145626 122.943847,19.0468605 C123.298721,19.5748838 123.643855,20.0880393 124,20.6177618 C122.331922,21.7460242 120.68163,22.8623921 119,24 L119,8 Z" id="Fill-19"></path>
        </g>
    </g>
</svg>