<?xml version="1.0" encoding="UTF-8"?>
<svg width="263px" height="64px" viewBox="0 0 263 64" version="1.1" xmlns="http://www.w3.org/2000/svg" xmlns:xlink="http://www.w3.org/1999/xlink">
    <!-- Generator: Sketch 61.1 (89650) - https://sketch.com -->
    <title>Group 4</title>
    <desc>Created with Sketch.</desc>
    <defs>
        <linearGradient x1="-1.11022302e-14%" y1="50%" x2="100%" y2="50%" id="linearGradient-1">
            <stop stop-color="#C3AD72" offset="0%"></stop>
            <stop stop-color="#F0E6C3" offset="100%"></stop>
        </linearGradient>
    </defs>
    <g id="Symbols" stroke="none" stroke-width="1" fill="none" fill-rule="evenodd">
        <g id="layout/header" transform="translate(-25.000000, -98.000000)">
            <g id="Group-4" transform="translate(25.000000, 98.000000)">
                <g id="Group-18-Copy-6">
                    <rect id="Rectangle" fill="#001939" x="0" y="0" width="64" height="64" rx="10"></rect>
                    <g id="Group-15" transform="translate(10.000000, 10.000000)" fill="url(#linearGradient-1)" fill-rule="nonzero">
                        <g id="Logo-Copy-3">
                            <path d="M37.6006297,7.45080605 L37.6201259,7.36198992 L37.4966499,7.33382872 C33.5649118,2.90060453 27.8297733,0.101813602 21.4523426,0.101813602 C18.4455919,0.101813602 15.5818136,0.724609572 12.9823174,1.84672544 L12.6855416,1.78065491 L12.636801,1.99836272 C5.19574307,5.36687657 0.00649874055,12.8631738 0.00649874055,21.5476574 C0.00649874055,26.852796 1.94420655,31.7138539 5.14700252,35.461461 L5.12209068,35.5719395 L5.26831234,35.6044332 C9.20329975,40.1286398 14.9990932,42.9935013 21.4523426,42.9935013 C33.2778841,42.9935013 42.8981864,33.373199 42.8981864,21.5476574 C42.8981864,16.155869 40.8976574,11.2222418 37.6006297,7.45080605 Z M4.87622166,33.2388917 C4.87730479,33.2280605 4.87838791,33.2183123 4.88055416,33.2074811 C4.96395466,33.2757179 5.05277078,33.3450378 5.14483627,33.4154408 C5.26506297,33.5475819 5.38853904,33.6797229 5.51526448,33.8107809 L5.4881864,33.9310076 C5.46002519,33.9147607 5.43186398,33.8985139 5.40586902,33.8833501 C5.22498741,33.6710579 5.04735516,33.4565995 4.87622166,33.2388917 Z M37.8919899,9.69178841 C37.8898237,9.71236776 37.8865743,9.73403023 37.8833249,9.75785894 C37.8172544,9.70370277 37.7501008,9.6495466 37.6786146,9.59539043 C37.5323929,9.43617128 37.3818388,9.27695214 37.2269521,9.117733 L37.2507809,9.01050378 C37.3027708,9.03974811 37.3493451,9.0668262 37.3937531,9.09282116 C37.5648866,9.29103275 37.7306045,9.49032746 37.8919899,9.69178841 Z M5.71130982,32.9367003 C5.63982368,32.8771285 5.57050378,32.8164736 5.502267,32.7569018 C5.34521411,32.600932 5.19465995,32.4438791 5.04952141,32.2879093 C5.57916877,29.723073 7.1572796,23.4322922 8.94118388,17.0386146 C9.48707809,15.0824937 9.977733,13.3809068 10.4196474,11.9002771 L5.71130982,32.9367003 Z M37.0287406,10.0048111 C37.1240554,10.0849622 37.2182872,10.1640302 37.3081864,10.2430982 C37.4500756,10.3828212 37.585466,10.5225441 37.7165239,10.662267 C37.1868766,13.224937 35.6098489,19.5189673 33.8237783,25.9158942 C33.2302267,28.0409824 32.7027456,29.8638791 32.23267,31.4300756 L37.0287406,10.0048111 Z M27.9164232,40.6734509 C27.8557683,40.7167758 27.7951134,40.7568514 27.7333753,40.7980101 C26.4401259,40.5358942 24.0561713,39.9466751 21.236801,39.1787406 L27.9164232,40.6734509 Z M30.7119647,36.2423929 C30.5332494,36.7709572 30.3686146,37.2410327 30.2169773,37.6580353 C29.9299496,38.2288413 29.6559194,38.7368262 29.3959698,39.1765743 C29.0591184,39.6076574 28.7320151,39.981335 28.4157431,40.2943577 C28.4005793,40.306272 28.3854156,40.3192695 28.3702519,40.3311839 L14.4152897,37.2074559 C13.3310831,36.874937 12.3692695,36.5694962 11.5168514,36.2889673 C10.3579093,35.795063 9.31486146,35.3119899 8.40395466,34.8494962 C7.52120907,34.303602 6.74677582,33.7663728 6.08715365,33.2443073 L11.969597,6.96664987 C12.1461461,6.43916877 12.3096977,5.96801008 12.4602519,5.54667506 C12.7396977,4.97911839 13.0083123,4.4711335 13.2639295,4.02488665 C13.5791184,3.60788413 13.8867254,3.24070529 14.1845844,2.92551637 C14.3015617,2.82586902 14.418539,2.73055416 14.5355164,2.63957179 L28.1319647,5.68314861 C29.2497481,6.02433249 30.2397229,6.33735516 31.1159698,6.62438287 C32.3052393,7.12803526 33.373199,7.6197733 34.3068514,8.09093199 C35.1993451,8.63790932 35.9846096,9.17730479 36.6539798,9.70153652 L30.7119647,36.2423929 Z M14.9980101,2.29730479 C15.0532494,2.25939547 15.1084887,2.22040302 15.163728,2.18465995 C16.4223174,2.4456927 18.5885642,2.98183879 21.1501511,3.67395466 L14.9980101,2.29730479 Z M34.2407809,26.0317884 C35.8351385,20.3215617 37.4522418,13.9603778 38.0728715,11.0532746 C38.2808312,11.2904786 38.4757935,11.5265995 38.6545088,11.7616373 C38.4974559,13.847733 36.4611839,21.1999748 34.2321159,27.6673048 C33.460932,29.9039547 32.7114106,31.9142317 32.0019647,33.6591436 C32.6789169,31.4907305 33.4371033,28.9096474 34.2407809,26.0317884 Z M8.52418136,16.9238035 C6.93198992,22.6286146 5.31596977,28.9843829 4.6931738,31.8947355 C4.49279597,31.6629471 4.30649874,31.4322418 4.13428212,31.2026196 C4.29891688,29.0970277 6.33193955,21.7642821 8.55559194,15.3121159 C9.27911839,13.2130227 9.98423174,11.3143073 10.6546851,9.64629723 C10.0048111,11.7399748 9.28453401,14.198665 8.52418136,16.9238035 Z M27.1983123,41.1240302 C27.1582368,41.1467758 27.1170781,41.1695214 27.0770025,41.1911839 C25.4014106,41.025466 21.5823174,39.9737531 17.5953401,38.6046851 C21.3180353,39.6791436 25.1219647,40.6734509 27.1983123,41.1240302 Z M24.8890932,4.26967254 C21.3386146,3.24937028 17.7556423,2.31355164 15.7052897,1.86080605 C15.7442821,1.83914358 15.7832746,1.81856423 15.822267,1.79798489 C17.5086902,1.99403023 21.0992443,2.98075567 24.8890932,4.26967254 Z M39.4246096,13.5347103 C39.4246096,16.0605542 37.2800252,23.1853401 34.6426196,29.4176322 C33.5974055,31.8882368 32.5727708,34.0176574 31.5936272,35.7712343 C32.4633753,33.7956171 33.4728463,31.1993703 34.6415365,27.8081108 C36.7633753,21.6505542 38.6523426,14.9200252 39.0292695,12.2880353 C39.0834257,12.3692695 39.1354156,12.4494207 39.1863224,12.5306549 C39.3433753,12.8805038 39.4246096,13.216272 39.4246096,13.5347103 Z M28.4276574,5.08093199 C24.1439043,3.45516373 19.4453149,2.03193955 16.8360705,1.52720403 C19.2687657,1.64634761 24.088665,3.13780856 28.6453652,5.16541562 C28.572796,5.13617128 28.5013098,5.10801008 28.4276574,5.08093199 Z M3.38692695,29.4663728 C3.38692695,26.940529 5.53151134,19.8157431 8.16891688,13.5834509 C9.15780856,11.2460705 10.1282872,9.21413098 11.0586902,7.51687657 C10.2203526,9.45133501 9.25528967,11.9533501 8.14617128,15.1702267 C6.02974811,21.3137028 4.14403023,28.0269018 3.76168766,30.6718892 C3.70861461,30.5906549 3.65770781,30.5094207 3.60788413,30.4292695 C3.46274559,30.0935013 3.38692695,29.7718136 3.38692695,29.4663728 Z M14.3611335,37.8974055 C18.7261209,39.5535013 23.5221914,41.0005542 26.0989421,41.4792947 C23.6694962,41.4056423 18.6383879,39.849194 13.9365491,37.734937 C14.0773552,37.7890932 14.2181612,37.8432494 14.3611335,37.8974055 Z M35.0422922,29.5865995 C37.5995466,23.5416877 39.6975567,16.6400252 39.849194,13.839068 C40.0712343,14.4228715 40.1849622,14.9915113 40.1849622,15.5384887 C40.1849622,18.8690932 38.0273804,25.4414861 35.0552897,31.1668766 C33.6970529,33.7826196 32.3171537,35.9629471 30.9697481,37.6526196 C32.2705793,35.5968514 33.6721411,32.8251385 35.0422922,29.5865995 Z M7.76924433,13.4155668 C5.22173804,19.4355668 3.13130982,26.3047355 2.96450882,29.1284383 C2.75763224,28.5652141 2.65040302,28.0160705 2.65040302,27.4875063 C2.65040302,24.1569018 4.80798489,17.5845088 7.78007557,11.8591184 C9.07765743,9.35926952 10.3958186,7.25584383 11.6869018,5.59866499 C10.4283123,7.62627204 9.08523929,10.3059194 7.76924433,13.4155668 Z M35.8164384,8.36383216 C35.7920717,8.34376549 35.7662717,8.32369882 35.7404717,8.30363216 C35.7462051,8.30649882 35.7533717,8.30936549 35.7591051,8.31079882 C35.7777384,8.32799882 35.7963717,8.34663216 35.8164384,8.36383216 Z M31.3250126,5.95176322 C30.9155919,5.74596977 30.4964232,5.54017632 30.0653401,5.33763224 C25.9646348,3.40209068 21.4317632,1.84672544 18.4585894,1.29866499 C21.8054408,1.53586902 27.0152645,3.39017632 31.4874811,5.97234257 C31.5026448,5.98100756 31.5178086,5.99075567 31.5340554,5.99942065 L31.3250126,5.95176322 Z M8.08768262,35.5448615 C8.1559194,35.5708564 8.22740554,35.5968514 8.29780856,35.6239295 C8.4472796,35.7300756 8.59891688,35.8351385 8.75380353,35.9402015 L8.46027708,35.874131 C8.30755668,35.7549874 8.15700252,35.6347607 8.00861461,35.514534 C8.0356927,35.5242821 8.06168766,35.5340302 8.08768262,35.5448615 Z M11.293728,36.9518388 C11.7627204,37.1901259 12.2468766,37.4284131 12.7451134,37.6634509 C16.928136,39.6379849 21.561738,41.2171788 24.5294962,41.7349118 C21.1902267,41.5453652 15.8883375,39.673728 11.346801,37.0525693 C11.2644836,37.0049118 11.1843325,36.9572544 11.1020151,36.909597 L11.293728,36.9518388 Z M30.5928212,38.7563224 C32.7233249,36.321461 34.5007305,33.1760705 35.4397985,31.3650882 C38.4400504,25.5855416 40.6182116,18.928665 40.6182116,15.5374055 C40.6182116,15.4529219 40.6149622,15.3684383 40.6095466,15.2828715 C40.8294207,16.0464736 40.9442317,16.8014106 40.9442317,17.5401008 C40.9442317,21.6126448 38.7444081,27.7896977 35.4701259,32.9128715 C33.9028463,35.3639798 32.241335,37.3710076 30.5668262,38.8711335 L30.5928212,38.7563224 Z M34.6772796,7.41073048 C34.5884635,7.37715365 34.4953149,7.3424937 34.4032494,7.30783375 C34.2451134,7.19735516 34.0848111,7.08687657 33.9212594,6.97639798 L34.2321159,7.04571788 C34.3945844,7.17027708 34.5548866,7.2959194 34.7119395,7.42264484 C34.7000252,7.41939547 34.689194,7.41506297 34.6772796,7.41073048 Z M32.8738791,6.29836272 C32.495869,6.06224181 32.1070277,5.82828715 31.7041058,5.59649874 C27.8351889,3.36309824 23.4073804,1.66801008 20.0713602,1.07229219 C23.9890176,1.38639798 28.9670529,3.3338539 33.0937531,6.21279597 C33.1879849,6.2788665 33.2800504,6.34493703 33.373199,6.41100756 L32.8738791,6.29836272 Z M12.0887406,4.44405542 C10.0264736,6.85292191 8.31188917,9.89216625 7.39448363,11.6587406 C4.39423174,17.4382872 2.21607053,24.0951637 2.21607053,27.4864232 C2.21607053,27.5503275 2.2193199,27.6142317 2.22256927,27.678136 C2.01785894,26.9437783 1.91279597,26.2180856 1.91279597,25.5064736 C1.91279597,21.4339295 4.11261965,15.2557935 7.38690176,10.1337028 C8.89894207,7.76924433 10.4987154,5.8163728 12.1136524,4.33465995 L12.0887406,4.44405542 Z M6.76410579,35.0173804 C7.00455919,35.234005 7.25259446,35.4484635 7.50821159,35.6607557 L6.97423174,35.5416121 C6.71103275,35.2892443 6.45541562,35.0336272 6.20846348,34.7736776 C6.37743073,34.8505793 6.56156171,34.9318136 6.76410579,35.0173804 Z M9.7838539,36.6139043 C10.2171033,36.8868514 10.6644332,37.1587154 11.1312594,37.42733 C15.0803275,39.7073048 19.6121159,41.4273048 22.9697985,41.9883627 C19.025063,41.7219144 13.9560453,39.7592947 9.76435768,36.8348615 C9.60838791,36.725466 9.45350126,36.6160705 9.30078086,36.5055919 L9.7838539,36.6139043 Z M29.6418388,40.2326196 C29.65267,40.2098741 29.6635013,40.1871285 29.6743325,40.1643829 C29.7382368,40.1167254 29.8010579,40.0701511 29.8649622,40.0203275 L29.8443829,40.1123929 C29.7772292,40.1524685 29.7100756,40.1925441 29.6418388,40.2326196 Z M30.4086902,39.5784131 C32.26733,38.0132997 34.1118892,35.8427204 35.8351385,33.1468262 C39.1505793,27.9608312 41.3774811,21.6895466 41.3774811,17.5411839 C41.3774811,17.0851889 41.3352393,16.6248615 41.2550882,16.1602015 C41.5507809,17.2866499 41.7045844,18.4206801 41.7045844,19.5449622 C41.7045844,24.4211839 39.5307557,30.0718388 35.8882116,34.6610327 C34.198539,36.7893703 32.3214861,38.5202015 30.3610327,39.7907053 L30.4086902,39.5784131 Z M36.5640806,8.18516373 C36.3875315,8.10501259 36.1958186,8.02052897 35.9835264,7.93062972 C35.7311587,7.70642317 35.4701259,7.48438287 35.2025945,7.26450882 L35.7560705,7.38798489 C36.0333501,7.65010076 36.3030479,7.91546599 36.5640806,8.18516373 Z M34.4194962,6.64496222 C34.0718136,6.37851385 33.7132997,6.11639798 33.3417884,5.85753149 C29.6938287,3.31219144 25.3829975,1.48604534 21.6917128,0.844836272 C26.1216877,1.22176322 30.8841814,3.25695214 34.7011083,6.45108312 C34.838665,6.56589421 34.9740554,6.68178841 35.1072796,6.79876574 L34.4194962,6.64496222 Z M13.0028967,2.97858942 C12.9931486,2.99916877 12.9834005,3.02083123 12.9747355,3.04141058 C12.9227456,3.08148615 12.8707557,3.12481108 12.8198489,3.16596977 L12.8393451,3.0793199 C12.8935013,3.04574307 12.9476574,3.01216625 13.0028967,2.97858942 Z M12.2739547,3.61763224 C10.4738035,5.17083123 8.69098237,7.28942065 7.02188917,9.90083123 C3.70644836,15.0868262 1.4795466,21.3581108 1.4795466,25.5064736 C1.4795466,25.8996474 1.5120403,26.2971537 1.57161209,26.6979093 C1.31166247,25.641864 1.17627204,24.5793199 1.17627204,23.5265239 C1.17627204,18.6503023 3.35010076,12.9996474 6.99264484,8.4104534 C8.62491184,6.35468514 10.4326448,4.67151134 12.3194458,3.41292191 L12.2739547,3.61763224 Z M5.71889169,34.8841562 C5.86836272,35.0455416 6.02108312,35.2047607 6.1770529,35.3628967 L5.63874055,35.24267 L5.71889169,34.8841562 Z M8.27397985,36.2759698 C8.67256927,36.5846599 9.08632242,36.8901008 9.51632242,37.1901259 C13.2390176,39.7874559 17.6527456,41.6385139 21.3938539,42.2418136 C16.9064736,41.911461 12.0551637,39.8632746 8.17974811,36.6193199 C7.98695214,36.4579345 7.79848866,36.2932997 7.61219144,36.1275819 L8.27397985,36.2759698 Z M28.4612974,41.369892 C28.4684641,41.3713254 28.4756308,41.3713254 28.4827974,41.3727587 C28.4426641,41.387092 28.4010974,41.4014254 28.3609641,41.4157587 C28.3939308,41.399992 28.4283308,41.3856587 28.4612974,41.369892 Z M29.2345844,40.9680605 L29.3873048,41.0041759 C29.3028212,41.0402914 29.2183375,41.0764069 29.1338539,41.1113938 C29.1652645,41.0696353 29.1988413,41.0222337 29.2345844,40.9680605 Z M37.0244081,8.04002519 C36.874937,7.88188917 36.7222166,7.72483627 36.56733,7.56994962 L37.1034761,7.69017632 L37.0244081,8.04002519 Z M13.0256423,2.30055416 L13.2281864,2.34604534 C13.1415365,2.39478589 13.0559698,2.4456927 12.9693199,2.4965995 L13.0115617,2.3070529 C13.0158942,2.30380353 13.0213098,2.3027204 13.0256423,2.30055416 Z M6.76410579,35.9380353 C7.12803526,36.2835516 7.50712846,36.6214861 7.90138539,36.9518388 C11.3998741,39.8806045 15.6857935,41.8518892 19.8049118,42.4952645 C14.3589673,42.0706801 9.49032746,39.5610831 5.99725441,35.7669018 L6.76410579,35.9380353 Z M30.1649874,40.665869 L30.2278086,40.3842569 C32.3615617,39.068262 34.4032494,37.225869 36.2272292,34.9285642 C39.928262,30.2657179 42.1378338,24.5143325 42.1378338,19.5438791 C42.1378338,16.1461209 40.788262,12.6606297 38.3371537,9.55423174 C38.3371537,9.54556675 38.3382368,9.53581864 38.3382368,9.52823678 C38.3382368,9.34410579 38.2255919,9.11664987 37.6937783,8.77654912 C37.5919647,8.65848866 37.4879849,8.54259446 37.3818388,8.42561713 L37.4825693,7.97828715 C40.5889673,11.6414106 42.464937,16.3789924 42.464937,21.5476574 C42.464937,30.0263476 37.4154156,37.3493451 30.1649874,40.665869 Z M35.9651134,6.99047859 C35.6466751,6.69478589 35.3195718,6.40342569 34.979471,6.11856423 C31.5578841,3.25478589 27.3835264,1.30624685 23.3478086,0.620629723 C28.6161209,1.09395466 33.3309572,3.52015113 36.7590428,7.16811083 L35.9651134,6.99047859 Z M12.4548363,2.81070529 C10.3925693,4.11803526 8.42020151,5.91602015 6.6536272,8.14183879 C2.95259446,12.803602 0.74302267,18.5560705 0.74302267,23.5265239 C0.74302267,26.8712091 2.05143577,30.2992947 4.42889169,33.3677834 C4.42780856,33.3894458 4.42672544,33.4100252 4.42672544,33.426272 C4.42672544,33.6136524 4.54478589,33.8486902 5.1090932,34.2017884 C5.1924937,34.2992695 5.27697733,34.3956675 5.36254408,34.4920655 L5.26397985,34.9307305 C2.2518136,31.293602 0.438664987,26.6285894 0.438664987,21.5476574 C0.438664987,13.154534 5.38528967,5.89652393 12.5165743,2.53234257 L12.4548363,2.81070529 Z" id="Shape"></path>
                        </g>
                    </g>
                </g>
                <text id="GemCard" font-family="Helvetica-BoldOblique, Helvetica" font-size="42" font-style="italic" font-weight="bold" fill="#001939">
                    <tspan x="70" y="47">GemCard</tspan>
                </text>
            </g>
        </g>
    </g>
</svg>