<?xml version="1.0" encoding="UTF-8"?>
<svg width="97px" height="80px" viewBox="0 0 97 80" version="1.1" xmlns="http://www.w3.org/2000/svg" xmlns:xlink="http://www.w3.org/1999/xlink">
    <title>Group</title>
    <g id="Page-1" stroke="none" stroke-width="1" fill="none" fill-rule="evenodd">
        <g id="Group" transform="translate(0.000000, -0.000000)" fill="#FFFFFF" fill-rule="nonzero">
            <path d="M0,75.85 L0,69.13 C0,67.13 1,65.91 3,65.91 C5,65.91 6,67.08 6,69.13 L6,70.22 L4.09,70.22 L4.09,69 C4.09,68.08 3.69,67.74 3.09,67.74 C2.49,67.74 2,68.08 2,69 L2,76 C2,76.91 2.4,77.24 3,77.24 C3.6,77.24 4,76.91 4,76 L4,73.49 L3,73.49 L3,71.67 L6,71.67 L6,75.85 C6,77.9 5,79.07 3,79.07 C1,79.07 0,77.9 0,75.85 Z" id="Path"></path>
            <polygon id="Path" points="13.69 66.09 19.17 66.09 19.17 67.92 15.69 67.92 15.69 71.3 18.45 71.3 18.45 73.13 15.69 73.13 15.69 77.06 19.17 77.06 19.17 78.88 13.69 78.88"></polygon>
            <polygon id="Path" points="26.71 66.09 29.58 66.09 30.86 75.25 30.86 75.25 32.14 66.09 35 66.09 35 78.88 33.1 78.88 33.1 69.2 33.1 69.2 31.64 78.88 30 78.88 28.5 69.2 28.5 69.2 28.5 78.88 26.71 78.88"></polygon>
            <path d="M49.08,75.92 L49.08,69.05 C49.08,67.05 50.08,65.91 52.08,65.91 C54.08,65.91 55.08,67.08 55.08,69.05 L55.08,70.4 L53.1,70.4 L53.1,68.92 C53.1,68.08 52.7,67.74 52.1,67.74 C51.5,67.74 51.1,68.08 51.1,68.92 L51.1,76.07 C51.1,76.91 51.5,77.24 52.1,77.24 C52.7,77.24 53.1,76.91 53.1,76.07 L53.1,74.07 L55,74.07 L55,75.88 C55,77.88 54,79.03 52,79.03 C50,79.03 49.08,77.9 49.08,75.92 Z" id="Path"></path>
            <path d="M66.88,66.09 L69,78.88 L67,78.88 L66.64,76.34 L64.3,76.34 L63.94,78.84 L62.07,78.84 L64.16,66.09 L66.88,66.09 Z M65.45,68.32 L64.57,74.64 L66.35,74.64 L65.45,68.32 Z" id="Combined-Shape"></path>
            <path d="M79.32,66.09 C81.41,66.09 82.32,67.09 82.32,69.03 L82.32,69.82 C82.32,71.0623529 81.9479585,71.8795156 81.1621901,72.2714879 L81.01,72.34 C82.01,72.65 82.34,73.6 82.34,75.04 L82.34,77.29 C82.3037685,77.8163797 82.3787264,78.344492 82.56,78.84 L80.56,78.84 C80.3961914,78.333844 80.3349974,77.8000961 80.38,77.27 L80.38,75 C80.38,73.81 80.03,73.43 79.12,73.43 L78.42,73.43 L78.42,78.91 L76.42,78.91 L76.32,66.09 L79.32,66.09 Z M79.27,67.9 L78.35,67.9 L78.35,71.55 L79.07,71.57 C79.81,71.57 80.27,71.25 80.27,70.22 L80.27,69.22 C80.27,68.3 79.96,67.9 79.27,67.9 Z" id="Combined-Shape"></path>
            <path d="M93.15,66.09 C95.15,66.09 96.15,67.21 96.15,69.25 L96.15,75.72 C96.15,77.72 95.15,78.88 93.15,78.88 L90.08,78.88 L90.08,66.09 L93.15,66.09 Z M93.08,67.92 L92.08,67.92 L92.08,77.06 L93.08,77.09 C93.72,77.09 94.08,76.76 94.08,75.84 L94.08,69.16 C94.08,68.25 93.7,67.92 93.08,67.92 Z" id="Combined-Shape"></path>
            <path d="M49.12,0.13 L49.59,0.36 L72.48,12.57 L72.97,12.79 L73,41.39 L68.68,44.19 L49.46,56.78 L49.12,56.98 L49.12,0.13 Z M54.43,9 L54.43,47.11 L54.65,47 L67.35,38.65 C67.5132079,38.4926721 67.6068094,38.2766687 67.61,38.05 L67.61,16.45 L67.61,16.45 C67.641245,16.1784264 67.4909383,15.9184364 67.24,15.81 L54.78,9.17 C54.6670705,9.10594167 54.550166,9.04915949 54.43,9 Z" id="Combined-Shape"></path>
            <path d="M40.78,46.92 L40.78,25 C39.78,25.41 38.78,25.8 37.78,26.22 C37.68,26.27 37.61,26.52 37.61,26.68 C37.61,28.31 37.61,29.94 37.61,31.57 L37.61,32.09 L32.31,32.09 C32.31,31.96 32.31,31.83 32.31,31.69 L32.31,23.08 C32.31,22.84 32.31,22.67 32.61,22.56 C37.0766667,20.7933333 41.5366667,19.0166667 45.99,17.23 L46.15,17.23 L46.15,57.23 L45.77,56.99 L23.52,41.36 C23.2881034,41.2198417 23.1562001,40.9599147 23.18,40.69 C23.18,31.55 23.18,22.4133333 23.18,13.28 C23.1462654,13.0266531 23.2794877,12.7803937 23.51,12.67 C30.91,8.51666667 38.3033333,4.36 45.69,0.2 L46.09,1.0658141e-14 L46.09,14.57 L40.81,14.57 L40.81,9.1 L40.34,9.33 C36.51,11.48 32.69,13.64 28.85,15.78 C28.6014025,15.8953101 28.4558593,16.1580965 28.49,16.43 C28.49,23.6033333 28.49,30.7733333 28.49,37.94 C28.4667027,38.1785222 28.5786187,38.4100725 28.78,38.54 L40.44,46.72 C40.5489435,46.793863 40.6625096,46.8606667 40.78,46.92 Z" id="Path"></path>
            <polygon id="Path" points="56.82 13.57 65.42 18.47 63.72 21.47 60.23 19.47 60.23 36.08 64 33.56 65.92 36.41 56.84 42.53"></polygon>
        </g>
    </g>
</svg>