<?xml version="1.0" encoding="utf-8"?>
<!-- Generator: Adobe Illustrator 24.2.1, SVG Export Plug-In . SVG Version: 6.00 Build 0)  -->
<svg version="1.1" id="圖層_1" xmlns="http://www.w3.org/2000/svg" xmlns:xlink="http://www.w3.org/1999/xlink" x="0px" y="0px"
	 viewBox="0 0 362.7 294.8" style="enable-background:new 0 0 362.7 294.8;" xml:space="preserve">
<style type="text/css">
	.st0{fill:#192A4F;}
</style>
<g>
	<g>
		<path class="st0" d="M7.8,274.9v-24.4c0-7.4,3.7-11.7,10.9-11.7c7.2,0,10.9,4.2,10.9,11.7v4h-6.9v-4.4c0-3.3-1.5-4.6-3.8-4.6
			c-2.3,0-3.8,1.3-3.8,4.6v25.4c0,3.3,1.5,4.5,3.8,4.5c2.3,0,3.8-1.2,3.8-4.5v-9.1H19v-6.6h10.5v15.2c0,7.4-3.7,11.7-10.9,11.7
			C11.5,286.6,7.8,282.4,7.8,274.9z"/>
		<path class="st0" d="M57.4,239.6h19.9v6.6H64.7v12.3h10v6.6h-10v14.2h12.6v6.6H57.4V239.6z"/>
		<path class="st0" d="M104.7,239.6h10.4l4.6,33.2h0.1l4.6-33.2h10.4v46.4H128v-35.1h-0.1l-5.3,35.1h-6.1l-5.3-35.1H111v35.1h-6.4
			V239.6z"/>
		<path class="st0" d="M185.7,275.2v-24.9c0-7.2,3.7-11.4,10.7-11.4s10.7,4.2,10.7,11.4v4.9h-6.9v-5.4c0-3-1.5-4.3-3.6-4.3
			c-2.2,0-3.6,1.3-3.6,4.3v25.9c0,3,1.5,4.2,3.6,4.2c2.2,0,3.6-1.2,3.6-4.2v-7.1h6.9v6.6c0,7.2-3.7,11.4-10.7,11.4
			S185.7,282.4,185.7,275.2z"/>
		<path class="st0" d="M240.4,239.6h9.9l7.6,46.4h-7.3l-1.3-9.2v0.1h-8.3l-1.3,9.1h-6.8L240.4,239.6z M248.3,270.6l-3.2-22.9H245
			l-3.2,22.9H248.3z"/>
		<path class="st0" d="M284.5,239.6h10.8c7.5,0,10.8,3.5,10.8,10.7v2.8c0,4.8-1.5,7.8-4.8,9.1v0.1c3.6,1.1,4.8,4.6,4.8,9.8v8.1
			c0,2.3,0.1,3.9,0.8,5.6h-7.4c-0.4-1.2-0.7-1.9-0.7-5.7v-8.5c0-4.3-1.3-5.7-4.6-5.7h-2.5v19.9h-7.3V239.6z M294.4,259.4
			c2.7,0,4.4-1.2,4.4-4.9V251c0-3.3-1.1-4.8-3.7-4.8h-3.3v13.2H294.4z"/>
		<path class="st0" d="M334.4,239.6h11.1c7.3,0,10.9,4,10.9,11.5v23.4c0,7.4-3.6,11.5-10.9,11.5h-11.1V239.6z M345.4,279.3
			c2.3,0,3.7-1.2,3.7-4.5v-24.1c0-3.3-1.4-4.5-3.7-4.5h-3.7v33.1H345.4z"/>
	</g>
	<g>
		<path class="st0" d="M272.3,150c-5.2,3.4-10.5,6.7-15.7,10.1c-23.2,15.2-46.4,30.4-69.5,45.6c-0.4,0.2-0.7,0.4-1.3,0.8
			c0-68.7,0-137.3,0-206.1c0.6,0.3,1.2,0.6,1.7,0.9c27.7,14.7,55.3,29.5,83,44.2c0.6,0.3,1.2,0.6,1.8,0.8
			C272.3,80.9,272.3,115.5,272.3,150z M205.1,170.8c0.4-0.2,0.6-0.3,0.8-0.4c15.3-10.1,30.7-20.1,46-30.3c0.6-0.4,1-1.4,1-2.2
			c0-26.1,0-52.2,0.1-78.3c0-1.1-0.3-1.8-1.4-2.3c-15.1-8-30.1-16.1-45.2-24.1c-0.4-0.2-0.8-0.3-1.3-0.5
			C205.1,78.8,205.1,124.7,205.1,170.8z"/>
		<path class="st0" d="M155.6,170.1c0-26.5,0-52.8,0-79.4c-3.8,1.5-7.4,2.9-11,4.4c-0.4,0.2-0.6,1.1-0.6,1.7c0,5.9,0,11.8,0,17.7
			c0,0.6,0,1.2,0,1.9c-6.5,0-12.8,0-19.2,0c0-0.5-0.1-1-0.1-1.4c0-10.4,0-20.9,0-31.3c0-0.9,0.1-1.5,1.1-1.9
			c16.2-6.4,32.3-12.9,48.5-19.3c0.1-0.1,0.3-0.1,0.6-0.1c0,48.3,0,96.5,0,145c-0.5-0.3-1-0.6-1.4-0.9
			c-26.8-18.8-53.6-37.7-80.4-56.5c-0.9-0.6-1.2-1.3-1.2-2.4c0-33.1,0-66.2,0-99.3c0-1,0.2-1.7,1.2-2.2c26.8-15,53.6-30.1,80.4-45.2
			c0.4-0.2,0.9-0.4,1.4-0.7c0,17.7,0,35.2,0,52.8c-6.3,0-12.6,0-19.1,0c0-6.5,0-13,0-19.8c-0.7,0.4-1.2,0.6-1.7,0.8
			c-13.9,7.8-27.8,15.6-41.7,23.4c-1,0.6-1.3,1.2-1.3,2.3c0,26,0,52,0,78c0,1,0.2,1.6,1,2.2c14.1,9.9,28.2,19.8,42.2,29.6
			C154.7,169.6,155.1,169.8,155.6,170.1z"/>
		<path class="st0" d="M213.8,49.2c10.5,6,20.7,11.8,31.2,17.8c-2,3.6-4,7.1-6.1,10.8c-4.2-2.4-8.3-4.7-12.7-7.2c0,20.1,0,40,0,60.2
			c4.6-3.1,9-6.1,13.6-9.1c2.3,3.5,4.6,6.8,7,10.3c-11,7.4-21.8,14.7-32.9,22.2C213.8,119.1,213.8,84.3,213.8,49.2z"/>
	</g>
</g>
</svg>
